<svg version="1.1" id="Layer_1" xmlns="http://www.w3.org/2000/svg" xmlns:xlink="http://www.w3.org/1999/xlink" x="0px" y="0px"
	 width="100%" viewBox="0 0 500 500"  xml:space="preserve">
<path fill="#000000" opacity="1.000000" stroke="none" 
	d="
M324.000000,501.000000 
	C216.000031,501.000000 108.500053,501.000000 1.000058,501.000000 
	C1.000038,334.333405 1.000038,167.666794 1.000019,1.000147 
	C167.666565,1.000098 334.333130,1.000098 500.999756,1.000049 
	C500.999847,167.666519 500.999847,334.333038 500.999939,500.999786 
	C442.166656,501.000000 383.333344,501.000000 324.000000,501.000000 
M371.722504,180.029724 
	C371.438690,177.383255 371.235382,174.725266 370.859283,172.091980 
	C361.614105,107.362297 301.721985,61.421818 236.649918,69.128731 
	C179.159897,75.937653 134.363297,123.019638 130.087082,181.285736 
	C130.009537,181.454803 129.932007,181.623856 129.187866,181.976578 
	C81.460449,214.165100 62.922337,275.669159 85.018845,328.516479 
	C106.329727,379.484833 158.226257,409.308716 212.914902,402.195557 
	C226.252670,400.460724 238.753342,396.190582 251.729996,391.010315 
	C273.787231,401.521179 296.910645,405.310242 321.172882,402.148651 
	C396.672729,392.310364 444.700378,314.805603 419.606537,242.909882 
	C410.677368,217.327164 395.154633,196.590057 371.913879,181.293274 
	C371.813629,181.135361 371.713409,180.977432 371.722504,180.029724 
z"/>
<path fill="#00FE01" opacity="1.000000" stroke="none" 
	d="
M372.148682,181.802841 
	C395.154633,196.590057 410.677368,217.327164 419.606537,242.909882 
	C444.700378,314.805603 396.672729,392.310364 321.172882,402.148651 
	C296.910645,405.310242 273.787231,401.521179 251.365112,390.806305 
	C251.000214,390.602295 251.000153,390.281891 251.357666,390.200928 
	C291.234894,368.745941 313.406219,335.863037 317.634033,290.709106 
	C317.880127,290.260162 317.977814,290.080200 318.398926,289.817261 
	C339.691101,275.534363 354.655273,256.538269 363.981964,233.045731 
	C370.520996,216.574875 372.419006,199.360764 372.148682,181.802841 
z"/>
<path fill="#0100FE" opacity="1.000000" stroke="none" 
	d="
M251.000153,390.281891 
	C251.000153,390.281891 251.000214,390.602295 251.000671,390.762512 
	C238.753342,396.190582 226.252670,400.460724 212.914902,402.195557 
	C158.226257,409.308716 106.329727,379.484833 85.018845,328.516479 
	C62.922337,275.669159 81.460449,214.165100 129.597351,182.361984 
	C130.996704,193.971893 130.780289,205.464630 133.205444,216.369949 
	C140.134094,247.526398 157.104660,272.225616 184.071121,290.166504 
	C184.317810,290.614563 184.416702,290.793640 184.463898,291.372437 
	C187.261765,303.828003 188.751450,316.417267 193.229813,327.834198 
	C204.248642,355.925110 223.701920,376.904114 251.000153,390.281891 
z"/>
<path fill="#FD0000" opacity="1.000000" stroke="none" 
	d="
M130.385559,180.814331 
	C134.363297,123.019638 179.159897,75.937653 236.649918,69.128731 
	C301.721985,61.421818 361.614105,107.362297 370.859283,172.091980 
	C371.235382,174.725266 371.438690,177.383255 371.362793,180.340546 
	C353.432068,169.403549 334.269592,162.777420 313.438782,161.464951 
	C291.804382,160.101852 271.058197,163.617538 251.492249,173.940308 
	C250.921158,173.946625 250.594864,173.946304 250.035126,173.668289 
	C232.641510,164.934097 214.457458,160.980362 195.366608,161.162979 
	C171.805084,161.388336 150.301880,168.496567 130.385559,180.814331 
z"/>
<path fill="#FE01FD" opacity="1.000000" stroke="none" 
	d="
M130.236328,181.050034 
	C150.301880,168.496567 171.805084,161.388336 195.366608,161.162979 
	C214.457458,160.980362 232.641510,164.934097 249.791443,173.933517 
	C222.918961,188.754517 203.643326,209.920547 192.296432,238.167313 
	C185.633163,254.754715 183.604630,272.150391 183.923309,289.897552 
	C157.104660,272.225616 140.134094,247.526398 133.205444,216.369949 
	C130.780289,205.464630 130.996704,193.971893 129.930664,182.270142 
	C129.932007,181.623856 130.009537,181.454803 130.236328,181.050034 
z"/>
<path fill="#FDFE01" opacity="1.000000" stroke="none" 
	d="
M251.737030,173.937195 
	C271.058197,163.617538 291.804382,160.101852 313.438782,161.464951 
	C334.269592,162.777420 353.432068,169.403549 371.308105,180.735443 
	C371.713409,180.977432 371.813629,181.135361 372.031281,181.548065 
	C372.419006,199.360764 370.520996,216.574875 363.981964,233.045731 
	C354.655273,256.538269 339.691101,275.534363 318.321320,289.361877 
	C319.009125,257.834778 310.251038,229.898941 290.589172,205.547379 
	C279.872498,192.274582 266.496246,182.251190 251.737030,173.937195 
z"/>
<path fill="#FFFFFF" opacity="1.000000" stroke="none" 
	d="
M251.492249,173.940308 
	C266.496246,182.251190 279.872498,192.274582 290.589172,205.547379 
	C310.251038,229.898941 319.009125,257.834778 317.997864,289.444916 
	C317.977814,290.080200 317.880127,290.260162 317.316406,290.763702 
	C290.497070,307.764404 261.867767,313.661469 231.097992,308.899384 
	C214.311310,306.301392 198.988007,299.691193 184.515610,290.972717 
	C184.416702,290.793640 184.317810,290.614563 184.071121,290.166504 
	C183.604630,272.150391 185.633163,254.754715 192.296432,238.167313 
	C203.643326,209.920547 222.918961,188.754517 250.024887,174.207687 
	C250.594864,173.946304 250.921158,173.946625 251.492249,173.940308 
z"/>
<path fill="#02FEFE" opacity="1.000000" stroke="none" 
	d="
M184.463898,291.372437 
	C198.988007,299.691193 214.311310,306.301392 231.097992,308.899384 
	C261.867767,313.661469 290.497070,307.764404 317.168030,291.032654 
	C313.406219,335.863037 291.234894,368.745941 251.357666,390.200928 
	C223.701920,376.904114 204.248642,355.925110 193.229813,327.834198 
	C188.751450,316.417267 187.261765,303.828003 184.463898,291.372437 
z"/>
</svg>